#!OML:ASF H:\Male1\Project 1\Capture day 1\Session 1\Male1.ASF
:FULLY-SPECIFIED
:DEGREES
110
root 5.21807 15.4146 2.30506 175.041 -30.2467 -178.603
lowerback 7.45809 1.73453 -0.703854
upperback 6.46351 1.81631 -1.40753
thorax 2.52756 0.711554 -1.15884
lowerneck 3.52823 2.5697 8.5638
upperneck 5.89278 3.58015 -3.75386
head 1.51376 1.84433 -2.68944
rclavicle -2.28602e-014 1.90833e-014
rhumerus 23.0015 43.6606 -79.7053
rradius 133.947
rwrist -45.6672
rhand -40.8756 23.343
rfingers 7.12502
rthumb -13.8117 -6.17851
lclavicle -2.28602e-014 1.90833e-014
lhumerus 32.6724 -40.2436 65.1267
lradius 134.623
lwrist 39.6802
lhand -47.8264 10.4375
lfingers 7.12502
lthumb -20.5016 39.3751
rfemur -4.44918 9.04217 22.5063
rtibia 24.836
rfoot -24.1833 -31.1388
rtoes -22.4922
lfemur -4.01129 -14.9904 -17.8024
ltibia 24.4689
lfoot -17.5944 21.7907
ltoes -12.5897
111
root 5.22292 15.4149 2.30893 175.003 -30.3656 -178.516
lowerback 7.39845 1.67866 -0.526015
upperback 6.53388 1.74735 -1.46723
thorax 2.64096 0.682384 -1.31459
lowerneck 3.55585 2.56796 8.67067
upperneck 5.7934 3.58675 -3.79616
head 1.48085 1.84929 -2.72421
rclavicle -5.56597e-015 -4.53229e-014
rhumerus 23.1134 43.6444 -79.6265
rradius 134.006
rwrist -45.9434
rhand -40.8199 23.4956
rfingers 7.12502
rthumb -13.7581 -6.02955
lclavicle -5.56597e-015 -4.53229e-014
lhumerus 32.8838 -40.1901 64.7881
lradius 134.686
lwrist 39.771
lhand -47.8849 10.3366
lfingers 7.12502
lthumb -20.5578 39.2681
rfemur -4.41932 8.80417 22.5714
rtibia 24.7633
rfoot -24.038 -31.1186
rtoes -23.0359
lfemur -4.10733 -14.9467 -17.6978
ltibia 24.5589
lfoot -17.575 21.6551
ltoes -12.6099
112
root 5.22867 15.4152 2.31268 174.895 -30.4988 -178.39
lowerback 7.52612 1.57572 -0.509208
upperback 6.53657 1.60715 -1.37675
thorax 2.56804 0.610453 -1.22644
lowerneck 3.5658 2.64207 8.5008
upperneck 5.77779 3.68303 -3.78236
head 1.47569 1.89423 -2.6871
rclavicle -4.09496e-014 7.15625e-015
rhumerus 23.2592 43.9367 -79.3719
rradius 134.261
rwrist -46.5024
rhand -40.9358 23.3644
rfingers 7.12502
rthumb -13.8697 -6.15311
lclavicle -4.09496e-014 7.15625e-015
lhumerus 32.7661 -40.03 64.8335
lradius 134.778
lwrist 39.7475
lhand -47.9469 10.4009
lfingers 7.12502
lthumb -20.6174 39.3259
rfemur -4.36375 8.60291 22.6729
rtibia 24.6897
rfoot -23.914 -31.184
rtoes -23.189
lfemur -4.17678 -14.9034 -17.5539
ltibia 24.6221
lfoot -17.4282 21.5835
ltoes -13.6483
113
root 5.23224 15.4152 2.31601 174.802 -30.6444 -178.339
lowerback 7.65151 1.46085 -0.510459
upperback 6.5443 1.44977 -1.29092
thorax 2.50145 0.529061 -1.1315
lowerneck 3.55898 2.71765 8.23293
upperneck 5.77114 3.77866 -3.77645
head 1.47365 1.93697 -2.63426
rclavicle 8.15017e-014 -8.74653e-015
rhumerus 23.3838 44.2501 -79.1802
rradius 134.403
rwrist -46.88
rhand -40.9487 23.3757
rfingers 7.12502
rthumb -13.8821 -6.14095
lclavicle 8.15017e-014 -8.74653e-015
lhumerus 32.6853 -39.8559 64.9146
lradius 134.814
lwrist 39.6594
lhand -48.1648 10.398
lfingers 7.12502
lthumb -20.8268 39.3002
rfemur -4.27577 8.46859 22.7131
rtibia 24.6318
rfoot -23.7505 -31.3237
rtoes -22.9986
lfemur -4.19763 -14.8778 -17.4967
ltibia 24.6564
lfoot -17.2884 21.4621
ltoes -13.997
114
root 5.23421 15.4143 2.31857 174.762 -30.794 -178.367
lowerback 7.74252 1.39273 -0.518915
upperback 6.55378 1.35514 -1.24722
thorax 2.45816 0.479662 -1.07826
lowerneck 3.56019 2.73593 8.08384
upperneck 5.7255 3.80605 -3.85805
head 1.45838 1.9474 -2.63404
rclavicle -7.27552e-014 7.95139e-015
rhumerus 23.4174 44.417 -79.0708
rradius 134.434
rwrist -47.0092
rhand -40.8997 23.554
rfingers 7.12502
rthumb -13.835 -5.96585
lclavicle -7.27552e-014 7.95139e-015
lhumerus 32.778 -39.7379 64.9368
lradius 134.788
lwrist 39.7017
lhand -48.3092 9.88416
lfingers 7.12502
lthumb -20.9655 38.7711
rfemur -4.17639 8.42433 22.6907
rtibia 24.584
rfoot -23.7289 -31.4316
rtoes -22.871
lfemur -4.20311 -14.9025 -17.5332
ltibia 24.6778
lfoot -17.1926 21.3726
ltoes -13.9426
115
root 5.23635 15.4117 2.32065 174.708 -30.9405 -178.369
lowerback 7.81969 1.39073 -0.420973
upperback 6.57979 1.35314 -1.2585
thorax 2.44574 0.480885 -1.14595
lowerneck 3.57376 2.7035 8.02016
upperneck 5.62499 3.76586 -3.85586
head 1.41884 1.92649 -2.62211
rclavicle 3.49861e-014 -3.49861e-014
rhumerus 23.4196 44.3386 -78.9899
rradius 134.435
rwrist -47.0401
rhand -40.8574 23.5887
rfingers 7.12502
rthumb -13.7942 -5.93394
lclavicle 3.49861e-014 -3.49861e-014
lhumerus 33.0013 -39.7909 64.8742
lradius 134.792
lwrist 39.8339
lhand -48.2681 9.29167
lfingers 7.12502
lthumb -20.926 38.1829
rfemur -4.08491 8.45382 22.7059
rtibia 24.5484
rfoot -23.807 -31.5626
rtoes -22.743
lfemur -4.21725 -14.9219 -17.5425
ltibia 24.7113
lfoot -17.1848 21.3002
ltoes -14.2347
116
root 5.23966 15.4105 2.32234 174.622 -31.1086 -178.271
lowerback 7.86195 1.38694 -0.220696
upperback 6.6104 1.3556 -1.29028
thorax 2.46084 0.488834 -1.29175
lowerneck 3.56225 2.65531 8.05462
upperneck 5.51164 3.70465 -3.83512
head 1.38037 1.89708 -2.62202
rclavicle -1.21457e-013 3.65764e-014
rhumerus 23.4784 44.1238 -78.9329
rradius 134.409
rwrist -47.0878
rhand -40.7867 23.5575
rfingers 7.12502
rthumb -13.726 -5.96982
lclavicle -1.21457e-013 3.65764e-014
lhumerus 33.2668 -39.9024 64.716
lradius 134.809
lwrist 39.9035
lhand -48.4128 9.32225
lfingers 7.12502
lthumb -21.065 38.1981
rfemur -4.03133 8.50984 22.8228
rtibia 24.5447
rfoot -24.0967 -31.6732
rtoes -21.9435
lfemur -4.26015 -14.9311 -17.4381
ltibia 24.7567
lfoot -17.2122 21.1206
ltoes -14.3199
117
root 5.24434 15.4101 2.32465 174.54 -31.2711 -178.169
lowerback 7.91275 1.36203 -0.0386566
upperback 6.63286 1.32952 -1.31874
thorax 2.46152 0.48203 -1.42255
lowerneck 3.47474 2.61274 8.12581
upperneck 5.48557 3.64761 -3.88199
head 1.38647 1.86989 -2.65051
rclavicle -3.39922e-014 2.38542e-014
rhumerus 23.6163 43.9232 -78.8908
rradius 134.377
rwrist -47.2894
rhand -40.695 23.7474
rfingers 7.12502
rthumb -13.6377 -5.78582
lclavicle -3.39922e-014 2.38542e-014
lhumerus 33.4882 -39.9353 64.5779
lradius 134.8
lwrist 39.9869
lhand -48.5774 9.65516
lfingers 7.12502
lthumb -21.2231 38.5133
rfemur -4.00353 8.57961 22.9386
rtibia 24.5636
rfoot -24.5742 -31.6879
rtoes -20.8179
lfemur -4.31472 -14.9555 -17.3274
ltibia 24.8066
lfoot -17.1656 20.9619
ltoes -14.5078
118
root 5.24898 15.4082 2.32762 174.514 -31.3959 -178.222
lowerback 8.00833 1.32054 -0.0833378
upperback 6.64001 1.26829 -1.30534
thorax 2.41328 0.448235 -1.38189
lowerneck 3.4559 2.60424 8.13674
upperneck 5.48936 3.64241 -4.03651
head 1.39477 1.86655 -2.70481
rclavicle 5.36719e-014 -4.05521e-014
rhumerus 23.7632 43.9194 -78.8102
rradius 134.306
rwrist -47.5589
rhand -40.632 24.1527
rfingers 7.12502
rthumb -13.577 -5.38456
lclavicle 5.36719e-014 -4.05521e-014
lhumerus 33.5241 -39.8619 64.6238
lradius 134.792
lwrist 40.0625
lhand -48.5675 9.59023
lfingers 7.12502
lthumb -21.2136 38.4495
rfemur -3.96359 8.62769 22.9073
rtibia 24.5782
rfoot -24.8229 -31.7211
rtoes -20.3476
lfemur -4.34239 -14.9315 -17.3703
ltibia 24.8572
lfoot -17.0324 20.9117
ltoes -15.0773
119
root 5.25348 15.4068 2.33079 174.52 -31.4879 -178.275
lowerback 8.09821 1.29308 -0.147666
upperback 6.61537 1.22791 -1.27826
thorax 2.33471 0.42535 -1.31711
lowerneck 3.56582 2.57421 8.15104
upperneck 5.39072 3.61943 -4.21408
head 1.34668 1.85428 -2.76964
rclavicle -5.96354e-016 -1.11319e-014
rhumerus 23.8645 43.9571 -78.7092
rradius 134.279
rwrist -47.7763
rhand -40.7173 24.2082
rfingers 7.12502
rthumb -13.6592 -5.32359
lclavicle -5.96354e-016 -1.11319e-014
lhumerus 33.4943 -39.8438 64.7059
lradius 134.809
lwrist 40.107
lhand -48.6237 9.4327
lfingers 7.12502
lthumb -21.2676 38.2859
rfemur -3.97196 8.59626 22.8693
rtibia 24.607
rfoot -24.8247 -31.7826
rtoes -20.4255
lfemur -4.38509 -14.8505 -17.3979
ltibia 24.8782
lfoot -16.8224 20.8843
ltoes -15.7082
120
root 5.25824 15.4077 2.33422 174.47 -31.5326 -178.146
lowerback 8.14898 1.28413 -0.0285299
upperback 6.59866 1.22373 -1.24036
thorax 2.29127 0.427469 -1.34536
lowerneck 3.70645 2.55834 8.11831
upperneck 5.18218 3.61177 -4.22701
head 1.25336 1.85026 -2.77019
rclavicle 4.73108e-014 -6.36111e-015
rhumerus 24.0118 43.9143 -78.6201
rradius 134.302
rwrist -48.0051
rhand -40.8122 24.1624
rfingers 7.12502
rthumb -13.7507 -5.3632
lclavicle 4.73108e-014 -6.36111e-015
lhumerus 33.5521 -39.8357 64.6821
lradius 134.836
lwrist 40.1486
lhand -48.7857 9.56317
lfingers 7.12502
lthumb -21.4232 38.3987
rfemur -4.03614 8.58546 22.995
rtibia 24.6581
rfoot -24.8588 -31.7748
rtoes -20.3068
lfemur -4.44349 -14.761 -17.2369
ltibia 24.857
lfoot -16.6397 20.8243
ltoes -16.3361
121
root 5.2615 15.409 2.33687 174.46 -31.5767 -178.112
lowerback 8.16274 1.29407 0.0457983
upperback 6.61911 1.23919 -1.23517
thorax 2.30728 0.437028 -1.38275
lowerneck 3.82245 2.5914 8.03872
upperneck 4.95245 3.66292 -4.12833
head 1.15785 1.87549 -2.72363
rclavicle 5.62561e-014 -2.38542e-014
rhumerus 24.1857 43.8049 -78.5454
rradius 134.301
rwrist -48.2369
rhand -40.7321 24.2899
rfingers 7.12502
rthumb -13.6735 -5.24097
lclavicle 5.62561e-014 -2.38542e-014
lhumerus 33.6943 -39.8071 64.5993
lradius 134.875
lwrist 40.2605
lhand -49.1429 9.7644
lfingers 7.12502
lthumb -21.7663 38.5605
rfemur -4.07928 8.57062 23.019
rtibia 24.6999
rfoot -24.9075 -31.7417
rtoes -20.4034
lfemur -4.46548 -14.7036 -17.1827
ltibia 24.8272
lfoot -16.5624 20.7436
ltoes -16.7986
122
root 5.26331 15.4092 2.33818 174.551 -31.6244 -178.275
lowerback 8.16086 1.33617 -0.028035
upperback 6.63967 1.28868 -1.26725
thorax 2.32996 0.45877 -1.37734
lowerneck 3.81169 2.59635 8.05938
upperneck 4.86364 3.67369 -4.16689
head 1.13318 1.8814 -2.74067
rclavicle 9.95911e-014 -2.70347e-014
rhumerus 24.2614 43.6398 -78.5091
rradius 134.295
rwrist -48.3892
rhand -40.5045 24.1378
rfingers 7.12502
rthumb -13.4541 -5.40765
lclavicle 9.95911e-014 -2.70347e-014
lhumerus 33.8084 -39.8004 64.577
lradius 134.937
lwrist 40.4738
lhand -49.575 10.0002
lfingers 7.12502
lthumb -22.1812 38.7476
rfemur -4.11308 8.50619 22.851
rtibia 24.7374
rfoot -24.9361 -31.7129
rtoes -20.6052
lfemur -4.46614 -14.6648 -17.3274
ltibia 24.7913
lfoot -16.5263 20.6741
ltoes -16.8427
